<?xml version="1.0" standalone="no"?><!DOCTYPE svg PUBLIC "-//W3C//DTD SVG 1.1//EN" "http://www.w3.org/Graphics/SVG/1.1/DTD/svg11.dtd"><svg t="1668134005658" class="icon" viewBox="0 0 1024 1024" version="1.1" xmlns="http://www.w3.org/2000/svg" p-id="22997" xmlns:xlink="http://www.w3.org/1999/xlink" width="200" height="200"><path d="M147.320397 871.389626A510.360781 510.360781 0 0 1 0.00046 511.99978C0.00046 229.239901 229.240361 0 512.00024 0s511.99978 229.239901 511.99978 511.99978c0 140.04894-56.217976 266.921885-147.319937 359.389846A510.429781 510.429781 0 0 1 512.00024 1023.99956a510.429781 510.429781 0 0 1-364.679843-152.609934z m30.070987-67.925971a384.852835 384.852835 0 0 1 232.9939-181.861922 204.799912 204.799912 0 1 1 203.229912 0c99.703957 27.306988 183.227921 93.76396 232.9939 181.861922A442.02681 442.02681 0 0 0 955.733049 511.99978c0-245.076895-198.655915-443.732809-443.732809-443.732809S68.267431 266.922885 68.267431 511.99978a442.02681 442.02681 0 0 0 109.123953 291.463875z" p-id="22998" fill="#707070"></path></svg>