<?xml version="1.0" standalone="no"?><!DOCTYPE svg PUBLIC "-//W3C//DTD SVG 1.1//EN" "http://www.w3.org/Graphics/SVG/1.1/DTD/svg11.dtd"><svg t="1668135359519" class="icon" viewBox="0 0 1024 1024" version="1.1" xmlns="http://www.w3.org/2000/svg" p-id="24060" xmlns:xlink="http://www.w3.org/1999/xlink" width="200" height="200"><path d="M473.728 864l-0.128 1.408a38.4 38.4 0 0 0 32.192 37.888l6.208 0.512a38.4 38.4 0 0 0 38.4-39.808h57.6a96 96 0 0 1-191.552 9.216L416 864h57.728zM545.28 64v65.728A320 320 0 0 1 832 448v319.936L896 768v64l-64-0.064V832H192v-0.064L128 832v-64l64-0.064V448a320 320 0 0 1 287.808-318.4L479.872 64H545.28zM512 192a256 256 0 0 0-256 256v319.936h512V448a256 256 0 0 0-256-256z" p-id="24061" fill="#707070"></path></svg>